<?xml version="1.0" encoding="UTF-8"?>
<svg xmlns="http://www.w3.org/2000/svg" width="720" height="1800" viewBox="0 0 720 1800" style="font-family: Arial, Helvetica, sans-serif;"><rect width="720" height="1800" fill="#FFFFFF"/><defs><marker id="arr" viewBox="0 0 10 10" refX="9" refY="5" markerWidth="7" markerHeight="7" orient="auto-start-reverse"><path d="M0 1 L9 5 L0 9 Z" fill="#4B4B4B"/></marker><marker id="open" viewBox="0 0 10 10" refX="9" refY="5" markerWidth="8" markerHeight="8" orient="auto-start-reverse"><path d="M1 1 L9 5 L1 9" fill="none" stroke="#4B4B4B" stroke-width="1.2"/></marker></defs><rect x="6" y="6" width="708" height="1788" fill="#FFFFFF" stroke="#808080" stroke-width="1.2"/><path d="M 6 6 L 142.4 6 L 142.4 22 L 133.4 31 L 6 31 Z" fill="#FFFFFF" stroke="#808080" stroke-width="1.2"/><text x="14" y="23" font-size="12" font-weight="bold" fill="#000000">act Boot Sequence</text><circle cx="300" cy="60" r="8" fill="#000000"/><polyline points="300,68 300,84" fill="none" stroke="#4B4B4B" stroke-width="1" marker-end="url(#arr)"/><rect x="175.0" y="84" width="250" height="46" rx="12" fill="#FFFFCC" stroke="#808080" stroke-width="1"/><text x="300" y="101.0" font-size="11" fill="#000000" text-anchor="middle">Serial.begin(115200)</text><text x="300" y="118.0" font-size="9" fill="#3A3A3A" text-anchor="middle">800 ms delay · LED off</text><rect x="175.0" y="154" width="250" height="46" rx="12" fill="#FFFFCC" stroke="#808080" stroke-width="1"/><text x="300" y="171.0" font-size="11" fill="#000000" text-anchor="middle">Create configMutex</text><text x="300" y="188.0" font-size="9" fill="#3A3A3A" text-anchor="middle">xSemaphoreCreateMutex()</text><polyline points="300,130 300,154" fill="none" stroke="#4B4B4B" stroke-width="1" marker-end="url(#arr)"/><polyline points="300,200 300,218" fill="none" stroke="#4B4B4B" stroke-width="1" marker-end="url(#arr)"/><polygon points="300,219.0 365.0,250 300,281.0 235.0,250" fill="#FFFFCC" stroke="#808080" stroke-width="1"/><text x="300" y="247" font-size="10" fill="#000000" text-anchor="middle">mutex</text><text x="300" y="261" font-size="10" fill="#000000" text-anchor="middle">created?</text><polyline points="365,250 500,250" fill="none" stroke="#4B4B4B" stroke-width="1" marker-end="url(#arr)"/><text x="372" y="244" font-size="9.5" fill="#000000" text-anchor="start">[no]</text><rect x="500.0" y="228" width="180" height="40" rx="12" fill="#FFFFCC" stroke="#808080" stroke-width="1"/><text x="590" y="252.0" font-size="11" fill="#000000" text-anchor="middle">HALT — fatal error</text><polyline points="300,281 300,300" fill="none" stroke="#4B4B4B" stroke-width="1" marker-end="url(#arr)"/><text x="308" y="296" font-size="9.5" fill="#000000" text-anchor="start">[yes]</text><rect x="175.0" y="300" width="250" height="46" rx="12" fill="#FFFFCC" stroke="#808080" stroke-width="1"/><text x="300" y="317.0" font-size="11" fill="#000000" text-anchor="middle">EEPROM.begin(176) · Wire.begin()</text><text x="300" y="334.0" font-size="9" fill="#3A3A3A" text-anchor="middle">I2C 400 kHz, GPIO 21/22</text><polyline points="300,346 300,370" fill="none" stroke="#4B4B4B" stroke-width="1" marker-end="url(#arr)"/><rect x="175.0" y="370" width="250" height="48" rx="12" fill="#FFFFCC" stroke="#808080" stroke-width="1"/><text x="300" y="388.0" font-size="11" fill="#000000" text-anchor="middle">loadParameters()</text><text x="300" y="405.0" font-size="9" fill="#3A3A3A" text-anchor="middle">filters · PID · axis · deadbands</text><polyline points="300,418 300,429" fill="none" stroke="#4B4B4B" stroke-width="1" marker-end="url(#arr)"/><polygon points="300,429.0 366.0,460 300,491.0 234.0,460" fill="#FFFFCC" stroke="#808080" stroke-width="1"/><text x="300" y="457" font-size="10" fill="#000000" text-anchor="middle">value NaN /</text><text x="300" y="471" font-size="10" fill="#000000" text-anchor="middle">invalid?</text><polyline points="366,460 500,460" fill="none" stroke="#4B4B4B" stroke-width="1" marker-end="url(#arr)"/><text x="372" y="454" font-size="9.5" fill="#000000" text-anchor="start">[yes]</text><rect x="500.0" y="438" width="180" height="44" rx="12" fill="#FFFFCC" stroke="#808080" stroke-width="1"/><text x="590" y="464.0" font-size="11" fill="#000000" text-anchor="middle">Replace with safe defaults</text><polyline points="590,482 590,516 302,516" fill="none" stroke="#4B4B4B" stroke-width="1" stroke-dasharray="5 3" marker-end="url(#arr)"/><polyline points="300,491 300,532" fill="none" stroke="#4B4B4B" stroke-width="1" marker-end="url(#arr)"/><text x="308" y="508" font-size="9.5" fill="#000000" text-anchor="start">[no]</text><rect x="175.0" y="540" width="250" height="48" rx="12" fill="#FFFFCC" stroke="#808080" stroke-width="1"/><text x="300" y="558.0" font-size="11" fill="#000000" text-anchor="middle">loadWifiCredentials()</text><text x="300" y="575.0" font-size="9" fill="#3A3A3A" text-anchor="middle">magic byte 0xA5 at addr 45</text><polyline points="300,588 300,599" fill="none" stroke="#4B4B4B" stroke-width="1" marker-end="url(#arr)"/><polygon points="300,599.0 366.0,630 300,661.0 234.0,630" fill="#FFFFCC" stroke="#808080" stroke-width="1"/><text x="300" y="627" font-size="10" fill="#000000" text-anchor="middle">credentials</text><text x="300" y="641" font-size="10" fill="#000000" text-anchor="middle">valid?</text><polyline points="366,630 500,630" fill="none" stroke="#4B4B4B" stroke-width="1" marker-end="url(#arr)"/><text x="372" y="624" font-size="9.5" fill="#000000" text-anchor="start">[no]</text><rect x="500.0" y="608" width="180" height="44" rx="12" fill="#FFFFCC" stroke="#808080" stroke-width="1"/><text x="590" y="634.0" font-size="11" fill="#000000" text-anchor="middle">Use firmware defaults</text><polyline points="590,652 590,686 302,686" fill="none" stroke="#4B4B4B" stroke-width="1" stroke-dasharray="5 3" marker-end="url(#arr)"/><polyline points="300,661 300,702" fill="none" stroke="#4B4B4B" stroke-width="1" marker-end="url(#arr)"/><text x="308" y="678" font-size="9.5" fill="#000000" text-anchor="start">[yes]</text><rect x="175.0" y="710" width="250" height="48" rx="12" fill="#FFFFCC" stroke="#808080" stroke-width="1"/><text x="300" y="728.0" font-size="11" fill="#000000" text-anchor="middle">checkSerialConfig()</text><text x="300" y="745.0" font-size="9" fill="#3A3A3A" text-anchor="middle">10 s window — change SSID via USB</text><polyline points="300,758 300,769" fill="none" stroke="#4B4B4B" stroke-width="1" marker-end="url(#arr)"/><polygon points="300,769.0 366.0,800 300,831.0 234.0,800" fill="#FFFFCC" stroke="#808080" stroke-width="1"/><text x="300" y="797" font-size="10" fill="#000000" text-anchor="middle">key pressed</text><text x="300" y="811" font-size="10" fill="#000000" text-anchor="middle">in 10 s?</text><polyline points="366,800 500,800" fill="none" stroke="#4B4B4B" stroke-width="1" marker-end="url(#arr)"/><text x="372" y="794" font-size="9.5" fill="#000000" text-anchor="start">[yes]</text><rect x="500.0" y="778" width="180" height="44" rx="12" fill="#FFFFCC" stroke="#808080" stroke-width="1"/><text x="590" y="804.0" font-size="11" fill="#000000" text-anchor="middle">Run menu · save creds</text><polyline points="590,822 590,856 302,856" fill="none" stroke="#4B4B4B" stroke-width="1" stroke-dasharray="5 3" marker-end="url(#arr)"/><polyline points="300,831 300,872" fill="none" stroke="#4B4B4B" stroke-width="1" marker-end="url(#arr)"/><text x="308" y="848" font-size="9.5" fill="#000000" text-anchor="start">[no]</text><rect x="175.0" y="880" width="250" height="48" rx="12" fill="#FFFFCC" stroke="#808080" stroke-width="1"/><text x="300" y="898.0" font-size="11" fill="#000000" text-anchor="middle">initMPU6050()</text><text x="300" y="915.0" font-size="9" fill="#3A3A3A" text-anchor="middle">wake · DLPF 44 Hz · ±500°/s · ±4g</text><polyline points="300,928 300,952" fill="none" stroke="#4B4B4B" stroke-width="1" marker-end="url(#arr)"/><rect x="175.0" y="952" width="250" height="48" rx="12" fill="#FFFFCC" stroke="#808080" stroke-width="1"/><text x="300" y="970.0" font-size="11" fill="#000000" text-anchor="middle">calibrateMPU6050()</text><text x="300" y="987.0" font-size="9" fill="#3A3A3A" text-anchor="middle">500 samples · board still</text><polyline points="300,1000 300,1024" fill="none" stroke="#4B4B4B" stroke-width="1" marker-end="url(#arr)"/><rect x="175.0" y="1024" width="250" height="48" rx="12" fill="#FFFFCC" stroke="#808080" stroke-width="1"/><text x="300" y="1042.0" font-size="11" fill="#000000" text-anchor="middle">Warm up filter</text><text x="300" y="1059.0" font-size="9" fill="#3A3A3A" text-anchor="middle">40 × updateMPU6050() · 800 ms</text><polyline points="300,1072 300,1096" fill="none" stroke="#4B4B4B" stroke-width="1" marker-end="url(#arr)"/><rect x="175.0" y="1096" width="250" height="48" rx="12" fill="#FFFFCC" stroke="#808080" stroke-width="1"/><text x="300" y="1114.0" font-size="11" fill="#000000" text-anchor="middle">Capture reference attitude</text><text x="300" y="1131.0" font-size="9" fill="#3A3A3A" text-anchor="middle">20-sample avg → PID setpoints</text><polyline points="300,1144 300,1168" fill="none" stroke="#4B4B4B" stroke-width="1" marker-end="url(#arr)"/><rect x="175.0" y="1168" width="250" height="48" rx="12" fill="#FFFFCC" stroke="#808080" stroke-width="1"/><text x="300" y="1186.0" font-size="11" fill="#000000" text-anchor="middle">Configure RC inputs + ISRs</text><text x="300" y="1203.0" font-size="9" fill="#3A3A3A" text-anchor="middle">GPIO 15-18 · IRAM_ATTR · CHANGE</text><polyline points="300,1216 300,1240" fill="none" stroke="#4B4B4B" stroke-width="1" marker-end="url(#arr)"/><rect x="175.0" y="1240" width="250" height="46" rx="12" fill="#FFFFCC" stroke="#808080" stroke-width="1"/><text x="300" y="1257.0" font-size="11" fill="#000000" text-anchor="middle">Attach + centre servos</text><text x="300" y="1274.0" font-size="9" fill="#3A3A3A" text-anchor="middle">GPIO 25/26 → 90°</text><polyline points="300,1286 300,1310" fill="none" stroke="#4B4B4B" stroke-width="1" marker-end="url(#arr)"/><rect x="175.0" y="1310" width="250" height="44" rx="12" fill="#FFFFCC" stroke="#808080" stroke-width="1"/><text x="300" y="1326.0" font-size="11" fill="#000000" text-anchor="middle">Final filter prime</text><text x="300" y="1343.0" font-size="9" fill="#3A3A3A" text-anchor="middle">50 × 20 ms · 1 s</text><polyline points="300,1354 300,1378" fill="none" stroke="#4B4B4B" stroke-width="1" marker-end="url(#arr)"/><rect x="175.0" y="1378" width="250" height="46" rx="12" fill="#FFFFCC" stroke="#808080" stroke-width="1"/><text x="300" y="1395.0" font-size="11" fill="#000000" text-anchor="middle">WiFi.begin(ssid, pass)</text><text x="300" y="1412.0" font-size="9" fill="#3A3A3A" text-anchor="middle">10 s timeout · WIFI_STA</text><polyline points="300,1424 300,1435" fill="none" stroke="#4B4B4B" stroke-width="1" marker-end="url(#arr)"/><polygon points="300,1435.0 366.0,1466 300,1497.0 234.0,1466" fill="#FFFFCC" stroke="#808080" stroke-width="1"/><text x="300" y="1463" font-size="10" fill="#000000" text-anchor="middle">WiFi</text><text x="300" y="1477" font-size="10" fill="#000000" text-anchor="middle">connected?</text><polyline points="366,1466 500,1466" fill="none" stroke="#4B4B4B" stroke-width="1" marker-end="url(#arr)"/><text x="372" y="1460" font-size="9.5" fill="#000000" text-anchor="start">[no]</text><rect x="500.0" y="1444" width="180" height="44" rx="12" fill="#FFFFCC" stroke="#808080" stroke-width="1"/><text x="590" y="1470.0" font-size="11" fill="#000000" text-anchor="middle">Flight-only mode — no Core 0 task</text><polyline points="590,1488 590,1522 302,1522" fill="none" stroke="#4B4B4B" stroke-width="1" stroke-dasharray="5 3" marker-end="url(#arr)"/><polyline points="300,1497 300,1538" fill="none" stroke="#4B4B4B" stroke-width="1" marker-end="url(#arr)"/><text x="308" y="1514" font-size="9.5" fill="#000000" text-anchor="start">[yes]</text><rect x="175.0" y="1548" width="250" height="48" rx="12" fill="#FFFFCC" stroke="#808080" stroke-width="1"/><text x="300" y="1566.0" font-size="11" fill="#000000" text-anchor="middle">mDNS · TCP :12345 · spawn Core 0</text><text x="300" y="1583.0" font-size="9" fill="#3A3A3A" text-anchor="middle">esp32.local · xTaskCreatePinnedToCore</text><polyline points="300,1596 300,1620" fill="none" stroke="#4B4B4B" stroke-width="1" marker-end="url(#arr)"/><rect x="175.0" y="1620" width="250" height="44" rx="12" fill="#FFFFCC" stroke="#808080" stroke-width="1"/><text x="300" y="1636.0" font-size="11" fill="#000000" text-anchor="middle">Arming indicator</text><text x="300" y="1653.0" font-size="9" fill="#3A3A3A" text-anchor="middle">LED on · roll servo wiggle ×3</text><polyline points="300,1664 300,1690" fill="none" stroke="#4B4B4B" stroke-width="1" marker-end="url(#arr)"/><circle cx="300" cy="1706" r="10" fill="#FFFFFF" stroke="#000" stroke-width="1.4"/><circle cx="300" cy="1706" r="5.5" fill="#000"/><text x="318" y="1710" font-size="9.5" fill="#000000" text-anchor="start">enter loop() — Core 1</text></svg>