<?xml version="1.0" encoding="UTF-8"?>
<svg xmlns="http://www.w3.org/2000/svg" width="880" height="690" viewBox="0 0 880 690" style="font-family: Arial, Helvetica, sans-serif;"><rect width="880" height="690" fill="#FFFFFF"/><rect x="6" y="6" width="868" height="678" fill="#FFFFFF" stroke="#808080" stroke-width="1.2"/><path d="M 6 6 L 178.4 6 L 178.4 22 L 169.4 31 L 6 31 Z" fill="#FFFFFF" stroke="#808080" stroke-width="1.2"/><text x="14" y="23" font-size="12" font-weight="bold" fill="#000000">Circuit Wiring Diagram</text><rect x="340" y="90" width="200" height="400" fill="#FFFFCC" stroke="#808080" stroke-width="1.1"/><text x="440.0" y="108" font-size="11" font-weight="bold" fill="#000000" text-anchor="middle">ESP32 DevKit (WROOM-32)</text><line x1="348" y1="115" x2="532" y2="115" stroke="#808080" stroke-width="0.7"/><rect x="332" y="126" width="8" height="8" fill="#FFFFFF" stroke="#808080" stroke-width="0.9"/><text x="346" y="133.5" font-size="8.5" fill="#000000">3V3</text><rect x="332" y="151" width="8" height="8" fill="#FFFFFF" stroke="#808080" stroke-width="0.9"/><text x="346" y="158.5" font-size="8.5" fill="#000000">GND</text><rect x="332" y="186" width="8" height="8" fill="#FFFFFF" stroke="#808080" stroke-width="0.9"/><text x="346" y="193.5" font-size="8.5" fill="#000000">G21 SDA</text><rect x="332" y="211" width="8" height="8" fill="#FFFFFF" stroke="#808080" stroke-width="0.9"/><text x="346" y="218.5" font-size="8.5" fill="#000000">G22 SCL</text><rect x="332" y="261" width="8" height="8" fill="#FFFFFF" stroke="#808080" stroke-width="0.9"/><text x="346" y="268.5" font-size="8.5" fill="#000000">G15 CH1</text><rect x="332" y="286" width="8" height="8" fill="#FFFFFF" stroke="#808080" stroke-width="0.9"/><text x="346" y="293.5" font-size="8.5" fill="#000000">G16 CH2</text><rect x="332" y="311" width="8" height="8" fill="#FFFFFF" stroke="#808080" stroke-width="0.9"/><text x="346" y="318.5" font-size="8.5" fill="#000000">G17 CH3</text><rect x="332" y="336" width="8" height="8" fill="#FFFFFF" stroke="#808080" stroke-width="0.9"/><text x="346" y="343.5" font-size="8.5" fill="#000000">G18 CH4</text><rect x="332" y="401" width="8" height="8" fill="#FFFFFF" stroke="#808080" stroke-width="0.9"/><text x="346" y="408.5" font-size="8.5" fill="#000000">VIN 5V</text><rect x="332" y="426" width="8" height="8" fill="#FFFFFF" stroke="#808080" stroke-width="0.9"/><text x="346" y="433.5" font-size="8.5" fill="#000000">GND</text><rect x="540" y="146" width="8" height="8" fill="#FFFFFF" stroke="#808080" stroke-width="0.9"/><text x="534" y="153.5" font-size="8.5" fill="#000000" text-anchor="end">G25 PITCH</text><rect x="540" y="246" width="8" height="8" fill="#FFFFFF" stroke="#808080" stroke-width="0.9"/><text x="534" y="253.5" font-size="8.5" fill="#000000" text-anchor="end">G26 ROLL</text><rect x="540" y="336" width="8" height="8" fill="#FFFFFF" stroke="#808080" stroke-width="0.9"/><text x="534" y="343.5" font-size="8.5" fill="#000000" text-anchor="end">G2 LED</text><rect x="540" y="401" width="8" height="8" fill="#FFFFFF" stroke="#808080" stroke-width="0.9"/><text x="534" y="408.5" font-size="8.5" fill="#000000" text-anchor="end">5V</text><rect x="540" y="426" width="8" height="8" fill="#FFFFFF" stroke="#808080" stroke-width="0.9"/><text x="534" y="433.5" font-size="8.5" fill="#000000" text-anchor="end">GND</text><rect x="70" y="100" width="180" height="150" fill="#FFFFCC" stroke="#808080" stroke-width="1.1"/><text x="160.0" y="118" font-size="11" font-weight="bold" fill="#000000" text-anchor="middle">MPU6050 (GY-521)</text><line x1="78" y1="125" x2="242" y2="125" stroke="#808080" stroke-width="0.7"/><rect x="250" y="126" width="8" height="8" fill="#FFFFFF" stroke="#808080" stroke-width="0.9"/><text x="244" y="133.5" font-size="8.5" fill="#000000" text-anchor="end">VCC</text><rect x="250" y="156" width="8" height="8" fill="#FFFFFF" stroke="#808080" stroke-width="0.9"/><text x="244" y="163.5" font-size="8.5" fill="#000000" text-anchor="end">GND</text><rect x="250" y="186" width="8" height="8" fill="#FFFFFF" stroke="#808080" stroke-width="0.9"/><text x="244" y="193.5" font-size="8.5" fill="#000000" text-anchor="end">SDA</text><rect x="250" y="216" width="8" height="8" fill="#FFFFFF" stroke="#808080" stroke-width="0.9"/><text x="244" y="223.5" font-size="8.5" fill="#000000" text-anchor="end">SCL</text><rect x="70" y="290" width="180" height="190" fill="#FFFFCC" stroke="#808080" stroke-width="1.1"/><text x="160.0" y="308" font-size="11" font-weight="bold" fill="#000000" text-anchor="middle">RC Receiver (4 ch)</text><line x1="78" y1="315" x2="242" y2="315" stroke="#808080" stroke-width="0.7"/><rect x="250" y="316" width="8" height="8" fill="#FFFFFF" stroke="#808080" stroke-width="0.9"/><text x="244" y="323.5" font-size="8.5" fill="#000000" text-anchor="end">CH1</text><rect x="250" y="341" width="8" height="8" fill="#FFFFFF" stroke="#808080" stroke-width="0.9"/><text x="244" y="348.5" font-size="8.5" fill="#000000" text-anchor="end">CH2</text><rect x="250" y="366" width="8" height="8" fill="#FFFFFF" stroke="#808080" stroke-width="0.9"/><text x="244" y="373.5" font-size="8.5" fill="#000000" text-anchor="end">CH3</text><rect x="250" y="391" width="8" height="8" fill="#FFFFFF" stroke="#808080" stroke-width="0.9"/><text x="244" y="398.5" font-size="8.5" fill="#000000" text-anchor="end">CH4</text><rect x="250" y="426" width="8" height="8" fill="#FFFFFF" stroke="#808080" stroke-width="0.9"/><text x="244" y="433.5" font-size="8.5" fill="#000000" text-anchor="end">VCC</text><rect x="250" y="451" width="8" height="8" fill="#FFFFFF" stroke="#808080" stroke-width="0.9"/><text x="244" y="458.5" font-size="8.5" fill="#000000" text-anchor="end">GND</text><rect x="640" y="110" width="170" height="110" fill="#FFFFCC" stroke="#808080" stroke-width="1.1"/><text x="725.0" y="128" font-size="11" font-weight="bold" fill="#000000" text-anchor="middle">Pitch Servo</text><line x1="648" y1="135" x2="802" y2="135" stroke="#808080" stroke-width="0.7"/><rect x="632" y="141" width="8" height="8" fill="#FFFFFF" stroke="#808080" stroke-width="0.9"/><text x="646" y="148.5" font-size="8.5" fill="#000000">SIG</text><rect x="632" y="166" width="8" height="8" fill="#FFFFFF" stroke="#808080" stroke-width="0.9"/><text x="646" y="173.5" font-size="8.5" fill="#000000">VCC</text><rect x="632" y="191" width="8" height="8" fill="#FFFFFF" stroke="#808080" stroke-width="0.9"/><text x="646" y="198.5" font-size="8.5" fill="#000000">GND</text><rect x="640" y="250" width="170" height="110" fill="#FFFFCC" stroke="#808080" stroke-width="1.1"/><text x="725.0" y="268" font-size="11" font-weight="bold" fill="#000000" text-anchor="middle">Roll Servo</text><line x1="648" y1="275" x2="802" y2="275" stroke="#808080" stroke-width="0.7"/><rect x="632" y="281" width="8" height="8" fill="#FFFFFF" stroke="#808080" stroke-width="0.9"/><text x="646" y="288.5" font-size="8.5" fill="#000000">SIG</text><rect x="632" y="306" width="8" height="8" fill="#FFFFFF" stroke="#808080" stroke-width="0.9"/><text x="646" y="313.5" font-size="8.5" fill="#000000">VCC</text><rect x="632" y="331" width="8" height="8" fill="#FFFFFF" stroke="#808080" stroke-width="0.9"/><text x="646" y="338.5" font-size="8.5" fill="#000000">GND</text><rect x="340" y="540" width="200" height="80" fill="#FFFFCC" stroke="#808080" stroke-width="1.1"/><text x="440.0" y="558" font-size="11" font-weight="bold" fill="#000000" text-anchor="middle">5V BEC / UBEC</text><line x1="348" y1="565" x2="532" y2="565" stroke="#808080" stroke-width="0.7"/><rect x="386" y="532" width="8" height="8" fill="#FFFFFF" stroke="#808080" stroke-width="0.9"/><text x="390" y="578" font-size="8.5" fill="#000000" text-anchor="middle">5V</text><rect x="466" y="532" width="8" height="8" fill="#FFFFFF" stroke="#808080" stroke-width="0.9"/><text x="470" y="578" font-size="8.5" fill="#000000" text-anchor="middle">GND</text><polyline points="258,190 332,190" fill="none" stroke="#4B4B4B" stroke-width="1"/><text x="295" y="184" font-size="8.5" fill="#3A3A3A" text-anchor="middle">SDA</text><polyline points="258,220 300,220 300,215 332,215" fill="none" stroke="#4B4B4B" stroke-width="1"/><text x="295" y="209" font-size="8.5" fill="#3A3A3A" text-anchor="middle">SCL</text><polyline points="258,130 300,130 300,130 332,130" fill="none" stroke="#4B4B4B" stroke-width="1"/><text x="295" y="124" font-size="8.5" fill="#3A3A3A" text-anchor="middle">3V3</text><polyline points="258,160 310,160 310,155 332,155" fill="none" stroke="#4B4B4B" stroke-width="1"/><text x="295" y="150" font-size="8.5" fill="#3A3A3A" text-anchor="middle">GND</text><polyline points="258,320 300,320 300,265 332,265" fill="none" stroke="#4B4B4B" stroke-width="1"/><text x="295" y="258" font-size="8.5" fill="#3A3A3A" text-anchor="middle">PWM in</text><polyline points="258,345 306,345 306,290 332,290" fill="none" stroke="#4B4B4B" stroke-width="1"/><polyline points="258,370 312,370 312,315 332,315" fill="none" stroke="#4B4B4B" stroke-width="1"/><polyline points="258,395 318,395 318,340 332,340" fill="none" stroke="#4B4B4B" stroke-width="1"/><polyline points="548,150 600,150 600,145 632,145" fill="none" stroke="#4B4B4B" stroke-width="1"/><text x="590" y="138" font-size="8.5" fill="#3A3A3A" text-anchor="middle">PWM out</text><polyline points="548,250 600,250 600,285 632,285" fill="none" stroke="#4B4B4B" stroke-width="1"/><text x="590" y="278" font-size="8.5" fill="#3A3A3A" text-anchor="middle">PWM out</text><polyline points="390,532 390,498" fill="none" stroke="#4B4B4B" stroke-width="1"/><text x="412" y="522" font-size="8.5" fill="#3A3A3A" text-anchor="middle">5V rail</text><polyline points="470,532 470,498" fill="none" stroke="#4B4B4B" stroke-width="1"/><text x="496" y="522" font-size="8.5" fill="#3A3A3A" text-anchor="middle">GND rail</text><polyline points="390,498 300,498 300,405 332,405" fill="none" stroke="#4B4B4B" stroke-width="1"/><polyline points="470,498 560,498 560,430 548,430" fill="none" stroke="#4B4B4B" stroke-width="1"/><polyline points="548,405 585,405 585,170 632,170" fill="none" stroke="#4B4B4B" stroke-width="1"/><polyline points="585,310 632,310" fill="none" stroke="#4B4B4B" stroke-width="1"/><polyline points="560,430 610,430 610,195 632,195" fill="none" stroke="#4B4B4B" stroke-width="1"/><polyline points="610,335 632,335" fill="none" stroke="#4B4B4B" stroke-width="1"/><polyline points="300,498 150,498 150,463 250,463 258,455" fill="none" stroke="#4B4B4B" stroke-width="1"/><polyline points="470,532 470,640 120,640 120,470 250,470 258,430" fill="none" stroke="#4B4B4B" stroke-width="1"/><path d="M 600 560 L 838 560 L 850 572 L 850 652 L 600 652 Z" fill="#FFFFE1" stroke="#808080" stroke-width="0.9"/><path d="M 838 560 L 838 572 L 850 572" fill="none" stroke="#808080" stroke-width="0.9"/><text x="608" y="576" font-size="9" fill="#000000">Notes:</text><text x="608" y="589" font-size="9" fill="#000000">· all grounds are common</text><text x="608" y="602" font-size="9" fill="#000000">· servos + receiver powered from the</text><text x="608" y="615" font-size="9" fill="#000000">  5 V BEC, not from the ESP32 3V3 pin</text><text x="608" y="628" font-size="9" fill="#000000">· MPU6050 runs from 3V3, I2C @400 kHz</text><text x="608" y="641" font-size="9" fill="#000000">· GPIO2 LED is on-board (WiFi status)</text></svg>