<?xml version="1.0" encoding="UTF-8"?>
<svg xmlns="http://www.w3.org/2000/svg" width="740" height="1560" viewBox="0 0 740 1560" style="font-family: Arial, Helvetica, sans-serif;"><rect width="740" height="1560" fill="#FFFFFF"/><defs><marker id="arr" viewBox="0 0 10 10" refX="9" refY="5" markerWidth="7" markerHeight="7" orient="auto-start-reverse"><path d="M0 1 L9 5 L0 9 Z" fill="#4B4B4B"/></marker><marker id="open" viewBox="0 0 10 10" refX="9" refY="5" markerWidth="8" markerHeight="8" orient="auto-start-reverse"><path d="M1 1 L9 5 L1 9" fill="none" stroke="#4B4B4B" stroke-width="1.2"/></marker></defs><rect x="6" y="6" width="728" height="1548" fill="#FFFFFF" stroke="#808080" stroke-width="1.2"/><path d="M 6 6 L 243.20000000000002 6 L 243.20000000000002 22 L 234.20000000000002 31 L 6 31 Z" fill="#FFFFFF" stroke="#808080" stroke-width="1.2"/><text x="14" y="23" font-size="12" font-weight="bold" fill="#000000">act Communication Task — Core 0</text><circle cx="340" cy="56" r="8" fill="#000000"/><polyline points="340,64 340,86" fill="none" stroke="#4B4B4B" stroke-width="1" marker-end="url(#arr)"/><rect x="210.0" y="86" width="260" height="46" rx="12" fill="#FFFFCC" stroke="#808080" stroke-width="1"/><text x="340" y="103.0" font-size="11" fill="#000000" text-anchor="middle">Wait for TCP client</text><text x="340" y="120.0" font-size="9" fill="#3A3A3A" text-anchor="middle">tcpServer.available() · sleep 50 ms</text><polyline points="340,132 340,158" fill="none" stroke="#4B4B4B" stroke-width="1" marker-end="url(#arr)"/><polygon points="340,169.0 410.0,202 340,235.0 270.0,202" fill="#FFFFCC" stroke="#808080" stroke-width="1"/><text x="340" y="199" font-size="10" fill="#000000" text-anchor="middle">client</text><text x="340" y="213" font-size="10" fill="#000000" text-anchor="middle">connected?</text><polyline points="270,202 130,202 130,108 208,108" fill="none" stroke="#4B4B4B" stroke-width="1" marker-end="url(#arr)"/><text x="262" y="196" font-size="9.5" fill="#000000" text-anchor="end">[no]</text><polyline points="340,235 340,262" fill="none" stroke="#4B4B4B" stroke-width="1" marker-end="url(#arr)"/><text x="348" y="258" font-size="9.5" fill="#000000" text-anchor="start">[yes]</text><rect x="210.0" y="262" width="260" height="46" rx="12" fill="#FFFFCC" stroke="#808080" stroke-width="1"/><text x="340" y="279.0" font-size="11" fill="#000000" text-anchor="middle">Init session</text><text x="340" y="296.0" font-size="9" fill="#3A3A3A" text-anchor="middle">setTimeout(5) · streaming flags = false</text><polyline points="340,308 340,336" fill="none" stroke="#4B4B4B" stroke-width="1" marker-end="url(#arr)"/><polygon points="340,347.0 410.0,380 340,413.0 270.0,380" fill="#FFFFCC" stroke="#808080" stroke-width="1"/><text x="340" y="377" font-size="10" fill="#000000" text-anchor="middle">still</text><text x="340" y="391" font-size="10" fill="#000000" text-anchor="middle">connected?</text><polyline points="410,380 660,380 660,1318 486,1318" fill="none" stroke="#4B4B4B" stroke-width="1" marker-end="url(#arr)"/><text x="418" y="374" font-size="9.5" fill="#000000" text-anchor="start">[no] → cleanup</text><polyline points="340,413 340,442" fill="none" stroke="#4B4B4B" stroke-width="1" marker-end="url(#arr)"/><text x="348" y="436" font-size="9.5" fill="#000000" text-anchor="start">[yes]</text><polygon points="340,453.0 415.0,486 340,519.0 265.0,486" fill="#FFFFCC" stroke="#808080" stroke-width="1"/><text x="340" y="483" font-size="10" fill="#000000" text-anchor="middle">data</text><text x="340" y="497" font-size="10" fill="#000000" text-anchor="middle">available?</text><polyline points="415,486 600,486 600,938 342,938" fill="none" stroke="#4B4B4B" stroke-width="1" stroke-dasharray="5 3" marker-end="url(#arr)"/><text x="422" y="480" font-size="9.5" fill="#000000" text-anchor="start">[no] — skip</text><polyline points="340,519 340,548" fill="none" stroke="#4B4B4B" stroke-width="1" marker-end="url(#arr)"/><text x="348" y="542" font-size="9.5" fill="#000000" text-anchor="start">[yes]</text><rect x="210.0" y="548" width="260" height="44" rx="12" fill="#FFFFCC" stroke="#808080" stroke-width="1"/><text x="340" y="564.0" font-size="11" fill="#000000" text-anchor="middle">Read command line</text><text x="340" y="581.0" font-size="9" fill="#3A3A3A" text-anchor="middle">readBytesUntil('\n')</text><polyline points="340,592 340,618" fill="none" stroke="#4B4B4B" stroke-width="1" marker-end="url(#arr)"/><rect x="210.0" y="618" width="260" height="44" rx="12" fill="#FFFFCC" stroke="#808080" stroke-width="1"/><text x="340" y="634.0" font-size="11" fill="#000000" text-anchor="middle">Take configMutex</text><text x="340" y="651.0" font-size="9" fill="#3A3A3A" text-anchor="middle">wait up to 30 ms</text><polyline points="340,662 340,690" fill="none" stroke="#4B4B4B" stroke-width="1" marker-end="url(#arr)"/><polygon points="340,702.0 410.0,734 340,766.0 270.0,734" fill="#FFFFCC" stroke="#808080" stroke-width="1"/><text x="340" y="731" font-size="10" fill="#000000" text-anchor="middle">mutex</text><text x="340" y="745" font-size="10" fill="#000000" text-anchor="middle">acquired?</text><polyline points="270,734 200,734" fill="none" stroke="#4B4B4B" stroke-width="1" marker-end="url(#arr)"/><text x="262" y="728" font-size="9.5" fill="#000000" text-anchor="end">[no]</text><rect x="45.0" y="712" width="150" height="44" rx="12" fill="#FFFFCC" stroke="#808080" stroke-width="1"/><text x="120" y="738.0" font-size="11" fill="#000000" text-anchor="middle">Reply ERR:busy</text><polyline points="120,712 120,380 268,380" fill="none" stroke="#4B4B4B" stroke-width="1" stroke-dasharray="5 3" marker-end="url(#arr)"/><polyline points="340,766 340,794" fill="none" stroke="#4B4B4B" stroke-width="1" marker-end="url(#arr)"/><text x="348" y="790" font-size="9.5" fill="#000000" text-anchor="start">[yes]</text><rect x="200.0" y="794" width="280" height="56" rx="12" fill="#FFFFCC" stroke="#808080" stroke-width="1"/><text x="340" y="816.0" font-size="11" fill="#000000" text-anchor="middle">Parse &amp; dispatch command</text><text x="340" y="833.0" font-size="9" fill="#3A3A3A" text-anchor="middle">get / set / axis / calibrate / save / stream ctrl</text><polyline points="340,850 340,876" fill="none" stroke="#4B4B4B" stroke-width="1" marker-end="url(#arr)"/><rect x="210.0" y="876" width="260" height="44" rx="12" fill="#FFFFCC" stroke="#808080" stroke-width="1"/><text x="340" y="892.0" font-size="11" fill="#000000" text-anchor="middle">Release configMutex</text><text x="340" y="909.0" font-size="9" fill="#3A3A3A" text-anchor="middle">xSemaphoreGive</text><polyline points="340,920 340,958" fill="none" stroke="#4B4B4B" stroke-width="1" marker-end="url(#arr)"/><polygon points="340,969.0 425.0,1002 340,1035.0 255.0,1002" fill="#FFFFCC" stroke="#808080" stroke-width="1"/><text x="340" y="999" font-size="10" fill="#000000" text-anchor="middle">PWM stream due?</text><text x="340" y="1013" font-size="10" fill="#000000" text-anchor="middle">flag ∧ 200 ms</text><polyline points="255,1002 210,1002" fill="none" stroke="#4B4B4B" stroke-width="1" marker-end="url(#arr)"/><text x="248" y="996" font-size="9.5" fill="#000000" text-anchor="end">[yes]</text><rect x="39.0" y="976" width="158" height="52" rx="12" fill="#FFFFCC" stroke="#808080" stroke-width="1"/><text x="118" y="996.0" font-size="11" fill="#000000" text-anchor="middle">Send channel %</text><text x="118" y="1013.0" font-size="9" fill="#3A3A3A" text-anchor="middle">or 'No signal' · 5 Hz</text><polyline points="118,1028 118,1082 254,1082" fill="none" stroke="#4B4B4B" stroke-width="1" stroke-dasharray="5 3" marker-end="url(#arr)"/><polyline points="340,1035 340,1064" fill="none" stroke="#4B4B4B" stroke-width="1" marker-end="url(#arr)"/><text x="348" y="1058" font-size="9.5" fill="#000000" text-anchor="start">[no]</text><polygon points="340,1075.0 425.0,1108 340,1141.0 255.0,1108" fill="#FFFFCC" stroke="#808080" stroke-width="1"/><text x="340" y="1105" font-size="10" fill="#000000" text-anchor="middle">IMU stream due?</text><text x="340" y="1119" font-size="10" fill="#000000" text-anchor="middle">flag ∧ 20 ms</text><polyline points="255,1108 210,1108" fill="none" stroke="#4B4B4B" stroke-width="1" marker-end="url(#arr)"/><text x="248" y="1102" font-size="9.5" fill="#000000" text-anchor="end">[yes]</text><rect x="39.0" y="1080" width="158" height="56" rx="12" fill="#FFFFCC" stroke="#808080" stroke-width="1"/><text x="118" y="1102.0" font-size="11" fill="#000000" text-anchor="middle">imuLock read angles</text><text x="118" y="1119.0" font-size="9" fill="#3A3A3A" text-anchor="middle">send r,p,y · 50 Hz</text><polyline points="118,1136 118,1188 338,1188" fill="none" stroke="#4B4B4B" stroke-width="1" stroke-dasharray="5 3" marker-end="url(#arr)"/><polyline points="340,1141 340,1204" fill="none" stroke="#4B4B4B" stroke-width="1" marker-end="url(#arr)"/><text x="348" y="1160" font-size="9.5" fill="#000000" text-anchor="start">[no]</text><rect x="210.0" y="1204" width="260" height="44" rx="12" fill="#FFFFCC" stroke="#808080" stroke-width="1"/><text x="340" y="1220.0" font-size="11" fill="#000000" text-anchor="middle">Yield 1 ms</text><text x="340" y="1237.0" font-size="9" fill="#3A3A3A" text-anchor="middle">vTaskDelay — keeps WiFi alive</text><polyline points="470,1226 636,1226 636,380 412,380" fill="none" stroke="#4B4B4B" stroke-width="1" marker-end="url(#arr)"/><text x="642" y="800" font-size="9.5" fill="#000000" text-anchor="start">loop</text><rect x="286.0" y="1296" width="260" height="56" rx="12" fill="#FFFFCC" stroke="#808080" stroke-width="1"/><text x="416" y="1318.0" font-size="11" fill="#000000" text-anchor="middle">Cleanup on disconnect</text><text x="416" y="1335.0" font-size="9" fill="#3A3A3A" text-anchor="middle">client.stop() · clear stream flags</text><polyline points="416,1352 416,1388 96,1388 96,108 208,108" fill="none" stroke="#4B4B4B" stroke-width="1" stroke-dasharray="5 3" marker-end="url(#arr)"/><text x="110" y="1380" font-size="9.5" fill="#000000" text-anchor="start">await next client</text></svg>