<?xml version="1.0" encoding="UTF-8"?>
<svg xmlns="http://www.w3.org/2000/svg" width="660" height="560" viewBox="0 0 660 560" style="font-family: Arial, Helvetica, sans-serif;"><rect width="660" height="560" fill="#FFFFFF"/><defs><marker id="arr" viewBox="0 0 10 10" refX="9" refY="5" markerWidth="7" markerHeight="7" orient="auto-start-reverse"><path d="M0 1 L9 5 L0 9 Z" fill="#4B4B4B"/></marker><marker id="open" viewBox="0 0 10 10" refX="9" refY="5" markerWidth="8" markerHeight="8" orient="auto-start-reverse"><path d="M1 1 L9 5 L1 9" fill="none" stroke="#4B4B4B" stroke-width="1.2"/></marker></defs><rect x="6" y="6" width="648" height="548" fill="#FFFFFF" stroke="#808080" stroke-width="1.2"/><path d="M 6 6 L 214.4 6 L 214.4 22 L 205.4 31 L 6 31 Z" fill="#FFFFFF" stroke="#808080" stroke-width="1.2"/><text x="14" y="23" font-size="12" font-weight="bold" fill="#000000">sd Cross-Core Data Exchange</text><rect x="75.0" y="46" width="150" height="30" fill="#FFFFCC" stroke="#808080" stroke-width="1"/><text x="150" y="65" font-size="10.5" fill="#000000" text-anchor="middle">Core 1 : FlightLoop</text><line x1="150" y1="76" x2="150" y2="470" stroke="#808080" stroke-width="1" stroke-dasharray="5 3"/><rect x="255.0" y="46" width="150" height="30" fill="#FFFFCC" stroke="#808080" stroke-width="1"/><text x="330" y="65" font-size="10.5" fill="#000000" text-anchor="middle">SharedMemory</text><line x1="330" y1="76" x2="330" y2="470" stroke="#808080" stroke-width="1" stroke-dasharray="5 3"/><rect x="435.0" y="46" width="150" height="30" fill="#FFFFCC" stroke="#808080" stroke-width="1"/><text x="510" y="65" font-size="10.5" fill="#000000" text-anchor="middle">Core 0 : CommTask</text><line x1="510" y1="76" x2="510" y2="470" stroke="#808080" stroke-width="1" stroke-dasharray="5 3"/><rect x="145" y="108" width="10" height="48" fill="#FDFDF2" stroke="#808080" stroke-width="0.9"/><rect x="325" y="118" width="10" height="30" fill="#FDFDF2" stroke="#808080" stroke-width="0.9"/><line x1="155" y1="126" x2="325" y2="126" stroke="#4B4B4B" stroke-width="1" marker-end="url(#arr)"/><text x="240.0" y="121" font-size="9.5" fill="#000000" text-anchor="middle">1: write angles() {imuLock}</text><text x="344" y="142" font-size="9.5" fill="#000000" text-anchor="start">sensorPitch / Roll / Yaw</text><rect x="505" y="196" width="10" height="72" fill="#FDFDF2" stroke="#808080" stroke-width="0.9"/><rect x="325" y="208" width="10" height="50" fill="#FDFDF2" stroke="#808080" stroke-width="0.9"/><line x1="505" y1="216" x2="335" y2="216" stroke="#4B4B4B" stroke-width="1" marker-end="url(#arr)"/><text x="420.0" y="211" font-size="9.5" fill="#000000" text-anchor="middle">2: read angles() {imuLock}</text><line x1="335" y1="250" x2="505" y2="250" stroke="#4B4B4B" stroke-width="1" stroke-dasharray="5 3" marker-end="url(#open)"/><text x="420.0" y="245" font-size="9.5" fill="#000000" text-anchor="middle">angles</text><text x="524" y="262" font-size="9.5" fill="#000000" text-anchor="start">→ stream to GCS, 50 Hz</text><rect x="505" y="306" width="10" height="46" fill="#FDFDF2" stroke="#808080" stroke-width="0.9"/><rect x="325" y="316" width="10" height="28" fill="#FDFDF2" stroke="#808080" stroke-width="0.9"/><line x1="505" y1="326" x2="335" y2="326" stroke="#4B4B4B" stroke-width="1" marker-end="url(#arr)"/><text x="420.0" y="321" font-size="9.5" fill="#000000" text-anchor="middle">3: write PID gain() {configMutex}</text><text x="100" y="344" font-size="9.5" fill="#000000" text-anchor="start">received from GCS: setPitchP…</text><rect x="145" y="392" width="10" height="60" fill="#FDFDF2" stroke="#808080" stroke-width="0.9"/><rect x="325" y="402" width="10" height="40" fill="#FDFDF2" stroke="#808080" stroke-width="0.9"/><line x1="155" y1="412" x2="325" y2="412" stroke="#4B4B4B" stroke-width="1" marker-end="url(#arr)"/><text x="240.0" y="407" font-size="9.5" fill="#000000" text-anchor="middle">4: read gain() {configMutex}</text><line x1="325" y1="440" x2="155" y2="440" stroke="#4B4B4B" stroke-width="1" stroke-dasharray="5 3" marker-end="url(#open)"/><text x="240.0" y="435" font-size="9.5" fill="#000000" text-anchor="middle">Kp / Ki / Kd</text><text x="144" y="466" font-size="9.5" fill="#000000" text-anchor="start">used in computePID() next tick</text><path d="M 40 486 L 608 486 L 620 498 L 620 538 L 40 538 Z" fill="#FFFFE1" stroke="#808080" stroke-width="0.9"/><path d="M 608 486 L 608 498 L 620 498" fill="none" stroke="#808080" stroke-width="0.9"/><text x="48" y="502" font-size="9" fill="#000000">imuLock — portMUX spinlock: guards 64-bit doubles, held for microseconds.</text><text x="48" y="515" font-size="9" fill="#000000">configMutex — FreeRTOS mutex: guards tunables, 30 ms timeout, held for ms.</text></svg>