<?xml version="1.0" encoding="UTF-8"?>
<svg xmlns="http://www.w3.org/2000/svg" width="760" height="1730" viewBox="0 0 760 1730" style="font-family: Arial, Helvetica, sans-serif;"><rect width="760" height="1730" fill="#FFFFFF"/><defs><marker id="arr" viewBox="0 0 10 10" refX="9" refY="5" markerWidth="7" markerHeight="7" orient="auto-start-reverse"><path d="M0 1 L9 5 L0 9 Z" fill="#4B4B4B"/></marker><marker id="open" viewBox="0 0 10 10" refX="9" refY="5" markerWidth="8" markerHeight="8" orient="auto-start-reverse"><path d="M1 1 L9 5 L1 9" fill="none" stroke="#4B4B4B" stroke-width="1.2"/></marker></defs><rect x="6" y="6" width="748" height="1718" fill="#FFFFFF" stroke="#808080" stroke-width="1.2"/><path d="M 6 6 L 308.0 6 L 308.0 22 L 299.0 31 L 6 31 Z" fill="#FFFFFF" stroke="#808080" stroke-width="1.2"/><text x="14" y="23" font-size="12" font-weight="bold" fill="#000000">act Flight Control Loop — Core 1 (50 Hz)</text><circle cx="330" cy="58" r="8" fill="#000000"/><polyline points="330,66 330,96" fill="none" stroke="#4B4B4B" stroke-width="1" marker-end="url(#arr)"/><polygon points="330,105.0 405.0,140 330,175.0 255.0,140" fill="#FFFFCC" stroke="#808080" stroke-width="1"/><text x="330" y="137" font-size="10" fill="#000000" text-anchor="middle">20 ms elapsed</text><text x="330" y="151" font-size="10" fill="#000000" text-anchor="middle">since last tick?</text><polyline points="405,140 560,140" fill="none" stroke="#4B4B4B" stroke-width="1" marker-end="url(#arr)"/><text x="412" y="134" font-size="9.5" fill="#000000" text-anchor="start">[no]</text><rect x="565.0" y="118" width="130" height="42" rx="12" fill="#FFFFCC" stroke="#808080" stroke-width="1"/><text x="630" y="133.0" font-size="11" fill="#000000" text-anchor="middle">yield CPU</text><text x="630" y="150.0" font-size="9" fill="#3A3A3A" text-anchor="middle">return</text><polyline points="695,118 695,58 338,58" fill="none" stroke="#4B4B4B" stroke-width="1" stroke-dasharray="5 3" marker-end="url(#arr)"/><polyline points="330,175 330,206" fill="none" stroke="#4B4B4B" stroke-width="1" marker-end="url(#arr)"/><text x="338" y="200" font-size="9.5" fill="#000000" text-anchor="start">[yes]</text><rect x="200.0" y="206" width="260" height="46" rx="12" fill="#FFFFCC" stroke="#808080" stroke-width="1"/><text x="330" y="223.0" font-size="11" fill="#000000" text-anchor="middle">Read MPU6050</text><text x="330" y="240.0" font-size="9" fill="#3A3A3A" text-anchor="middle">I2C burst — 14 bytes @0x3B</text><polyline points="330,252 330,276" fill="none" stroke="#4B4B4B" stroke-width="1" marker-end="url(#arr)"/><rect x="200.0" y="276" width="260" height="44" rx="12" fill="#FFFFCC" stroke="#808080" stroke-width="1"/><text x="330" y="292.0" font-size="11" fill="#000000" text-anchor="middle">Subtract bias · convert units</text><text x="330" y="309.0" font-size="9" fill="#3A3A3A" text-anchor="middle">raw → °/s and g</text><polyline points="330,320 330,344" fill="none" stroke="#4B4B4B" stroke-width="1" marker-end="url(#arr)"/><rect x="200.0" y="344" width="260" height="44" rx="12" fill="#FFFFCC" stroke="#808080" stroke-width="1"/><text x="330" y="360.0" font-size="11" fill="#000000" text-anchor="middle">EMA low-pass filter</text><text x="330" y="377.0" font-size="9" fill="#3A3A3A" text-anchor="middle">smooth accel + gyro</text><polyline points="330,388 330,412" fill="none" stroke="#4B4B4B" stroke-width="1" marker-end="url(#arr)"/><rect x="200.0" y="412" width="260" height="44" rx="12" fill="#FFFFCC" stroke="#808080" stroke-width="1"/><text x="330" y="428.0" font-size="11" fill="#000000" text-anchor="middle">Accel angle via atan2</text><text x="330" y="445.0" font-size="9" fill="#3A3A3A" text-anchor="middle">noisy, drift-free</text><polyline points="330,456 330,480" fill="none" stroke="#4B4B4B" stroke-width="1" marker-end="url(#arr)"/><rect x="200.0" y="480" width="260" height="44" rx="12" fill="#FFFFCC" stroke="#808080" stroke-width="1"/><text x="330" y="496.0" font-size="11" fill="#000000" text-anchor="middle">Integrate gyro × dt</text><text x="330" y="513.0" font-size="9" fill="#3A3A3A" text-anchor="middle">smooth, drifts</text><polyline points="330,524 330,548" fill="none" stroke="#4B4B4B" stroke-width="1" marker-end="url(#arr)"/><rect x="200.0" y="548" width="260" height="44" rx="12" fill="#FFFFCC" stroke="#808080" stroke-width="1"/><text x="330" y="564.0" font-size="11" fill="#000000" text-anchor="middle">Complementary blend</text><text x="330" y="581.0" font-size="9" fill="#3A3A3A" text-anchor="middle">98% gyro + 2% accel</text><polyline points="330,592 330,616" fill="none" stroke="#4B4B4B" stroke-width="1" marker-end="url(#arr)"/><rect x="200.0" y="616" width="260" height="46" rx="12" fill="#FFFFCC" stroke="#808080" stroke-width="1"/><text x="330" y="633.0" font-size="11" fill="#000000" text-anchor="middle">Write angles to shared memory</text><text x="330" y="650.0" font-size="9" fill="#3A3A3A" text-anchor="middle">imuLock critical section</text><polyline points="330,662 330,686" fill="none" stroke="#4B4B4B" stroke-width="1" marker-end="url(#arr)"/><rect x="200.0" y="686" width="260" height="44" rx="12" fill="#FFFFCC" stroke="#808080" stroke-width="1"/><text x="330" y="702.0" font-size="11" fill="#000000" text-anchor="middle">Read RC pulse widths</text><text x="330" y="719.0" font-size="9" fill="#3A3A3A" text-anchor="middle">stale &gt;30 ms → 0</text><polyline points="330,730 330,754" fill="none" stroke="#4B4B4B" stroke-width="1" marker-end="url(#arr)"/><rect x="200.0" y="754" width="260" height="46" rx="12" fill="#FFFFCC" stroke="#808080" stroke-width="1"/><text x="330" y="771.0" font-size="11" fill="#000000" text-anchor="middle">Map to % · deadband · cache</text><text x="330" y="788.0" font-size="9" fill="#3A3A3A" text-anchor="middle">±3% centre → 50 · pwmPct1-4</text><polyline points="330,800 330,846" fill="none" stroke="#4B4B4B" stroke-width="1" marker-end="url(#arr)"/><polygon points="330,856.0 405.0,892 330,928.0 255.0,892" fill="#FFFFCC" stroke="#808080" stroke-width="1"/><text x="330" y="889" font-size="10" fill="#000000" text-anchor="middle">CH4 &gt; 90%?</text><text x="330" y="903" font-size="10" fill="#000000" text-anchor="middle">autopilot switch</text><polyline points="255,892 210,892" fill="none" stroke="#4B4B4B" stroke-width="1" marker-end="url(#arr)"/><text x="248" y="886" font-size="9.5" fill="#000000" text-anchor="end">[no]</text><rect x="35.0" y="866" width="170" height="52" rx="12" fill="#FFFFCC" stroke="#808080" stroke-width="1"/><text x="120" y="886.0" font-size="11" fill="#000000" text-anchor="middle">Manual flight</text><text x="120" y="903.0" font-size="9" fill="#3A3A3A" text-anchor="middle">RC % → 45°–135°</text><polyline points="120,918 120,1372 198,1372" fill="none" stroke="#4B4B4B" stroke-width="1" stroke-dasharray="5 3" marker-end="url(#arr)"/><polyline points="330,928 330,958" fill="none" stroke="#4B4B4B" stroke-width="1" marker-end="url(#arr)"/><text x="338" y="952" font-size="9.5" fill="#000000" text-anchor="start">[yes]</text><rect x="200.0" y="958" width="260" height="44" rx="12" fill="#FFFFCC" stroke="#808080" stroke-width="1"/><text x="330" y="984.0" font-size="11" fill="#000000" text-anchor="middle">Compare with lastAutoState</text><polyline points="330,1002 330,1030" fill="none" stroke="#4B4B4B" stroke-width="1" marker-end="url(#arr)"/><polygon points="330,1039.0 400.0,1072 330,1105.0 260.0,1072" fill="#FFFFCC" stroke="#808080" stroke-width="1"/><text x="330" y="1069" font-size="10" fill="#000000" text-anchor="middle">first tick of</text><text x="330" y="1083" font-size="10" fill="#000000" text-anchor="middle">autopilot?</text><polyline points="400,1072 560,1072" fill="none" stroke="#4B4B4B" stroke-width="1" marker-end="url(#arr)"/><text x="408" y="1066" font-size="9.5" fill="#000000" text-anchor="start">[yes]</text><rect x="565.0" y="1048" width="130" height="48" rx="12" fill="#FFFFCC" stroke="#808080" stroke-width="1"/><text x="630" y="1066.0" font-size="11" fill="#000000" text-anchor="middle">Reset PIDs</text><text x="630" y="1083.0" font-size="9" fill="#3A3A3A" text-anchor="middle">bumpless transfer</text><polyline points="630,1096 630,1136 332,1136" fill="none" stroke="#4B4B4B" stroke-width="1" stroke-dasharray="5 3" marker-end="url(#arr)"/><polyline points="330,1105 330,1150" fill="none" stroke="#4B4B4B" stroke-width="1" marker-end="url(#arr)"/><text x="338" y="1146" font-size="9.5" fill="#000000" text-anchor="start">[no]</text><polygon points="330,1161.0 405.0,1196 330,1231.0 255.0,1196" fill="#FFFFCC" stroke="#808080" stroke-width="1"/><text x="330" y="1193" font-size="10" fill="#000000" text-anchor="middle">both sticks</text><text x="330" y="1207" font-size="10" fill="#000000" text-anchor="middle">centred ±5%?</text><polyline points="405,1196 560,1196" fill="none" stroke="#4B4B4B" stroke-width="1" marker-end="url(#arr)"/><text x="412" y="1190" font-size="9.5" fill="#000000" text-anchor="start">[no]</text><rect x="565.0" y="1166" width="130" height="60" rx="12" fill="#FFFFCC" stroke="#808080" stroke-width="1"/><text x="630" y="1190.0" font-size="11" fill="#000000" text-anchor="middle">Moved axis manual</text><text x="630" y="1207.0" font-size="9" fill="#3A3A3A" text-anchor="middle">other axis PID</text><polyline points="630,1226 630,1356 332,1356" fill="none" stroke="#4B4B4B" stroke-width="1" stroke-dasharray="5 3" marker-end="url(#arr)"/><polyline points="330,1231 330,1262" fill="none" stroke="#4B4B4B" stroke-width="1" marker-end="url(#arr)"/><text x="338" y="1256" font-size="9.5" fill="#000000" text-anchor="start">[yes]</text><rect x="200.0" y="1262" width="260" height="48" rx="12" fill="#FFFFCC" stroke="#808080" stroke-width="1"/><text x="330" y="1280.0" font-size="11" fill="#000000" text-anchor="middle">computePID() — pitch &amp; roll</text><text x="330" y="1297.0" font-size="9" fill="#3A3A3A" text-anchor="middle">deadband · integral clamp · d-on-meas</text><polyline points="330,1310 330,1372" fill="none" stroke="#4B4B4B" stroke-width="1" marker-end="url(#arr)"/><rect x="200.0" y="1372" width="260" height="44" rx="12" fill="#FFFFCC" stroke="#808080" stroke-width="1"/><text x="330" y="1398.0" font-size="11" fill="#000000" text-anchor="middle">Clamp angle 45°–135°</text><polyline points="330,1416 330,1444" fill="none" stroke="#4B4B4B" stroke-width="1" marker-end="url(#arr)"/><polygon points="330,1455.0 405.0,1488 330,1521.0 255.0,1488" fill="#FFFFCC" stroke="#808080" stroke-width="1"/><text x="330" y="1485" font-size="10" fill="#000000" text-anchor="middle">change &gt; servo</text><text x="330" y="1499" font-size="10" fill="#000000" text-anchor="middle">deadband (1°)?</text><polyline points="255,1488 210,1488" fill="none" stroke="#4B4B4B" stroke-width="1" marker-end="url(#arr)"/><text x="248" y="1482" font-size="9.5" fill="#000000" text-anchor="end">[no]</text><rect x="45.0" y="1464" width="150" height="44" rx="12" fill="#FFFFCC" stroke="#808080" stroke-width="1"/><text x="120" y="1480.0" font-size="11" fill="#000000" text-anchor="middle">skip write</text><text x="120" y="1497.0" font-size="9" fill="#3A3A3A" text-anchor="middle">prevent buzz</text><polyline points="120,1508 120,1600 198,1600" fill="none" stroke="#4B4B4B" stroke-width="1" stroke-dasharray="5 3" marker-end="url(#arr)"/><polyline points="330,1521 330,1548" fill="none" stroke="#4B4B4B" stroke-width="1" marker-end="url(#arr)"/><text x="338" y="1544" font-size="9.5" fill="#000000" text-anchor="start">[yes]</text><rect x="200.0" y="1548" width="260" height="44" rx="12" fill="#FFFFCC" stroke="#808080" stroke-width="1"/><text x="330" y="1574.0" font-size="11" fill="#000000" text-anchor="middle">servo.writeMicroseconds()</text><polyline points="330,1592 330,1614" fill="none" stroke="#4B4B4B" stroke-width="1" marker-end="url(#arr)"/><rect x="200.0" y="1614" width="260" height="40" rx="12" fill="#FFFFCC" stroke="#808080" stroke-width="1"/><text x="330" y="1638.0" font-size="11" fill="#000000" text-anchor="middle">Record loop timestamp</text><polyline points="460,1634 700,1634 700,140 407,140" fill="none" stroke="#4B4B4B" stroke-width="1" marker-end="url(#arr)"/><text x="706" y="900" font-size="9.5" fill="#000000" text-anchor="start">loop</text></svg>