<?xml version="1.0" encoding="UTF-8"?>
<svg xmlns="http://www.w3.org/2000/svg" width="1000" height="1080" viewBox="0 0 1000 1080" style="font-family: Arial, Helvetica, sans-serif;"><rect width="1000" height="1080" fill="#FFFFFF"/><defs><marker id="arr" viewBox="0 0 10 10" refX="9" refY="5" markerWidth="7" markerHeight="7" orient="auto-start-reverse"><path d="M0 1 L9 5 L0 9 Z" fill="#4B4B4B"/></marker><marker id="open" viewBox="0 0 10 10" refX="9" refY="5" markerWidth="8" markerHeight="8" orient="auto-start-reverse"><path d="M1 1 L9 5 L1 9" fill="none" stroke="#4B4B4B" stroke-width="1.2"/></marker></defs><rect x="6" y="6" width="988" height="1068" fill="#FFFFFF" stroke="#808080" stroke-width="1.2"/><path d="M 6 6 L 200.0 6 L 200.0 22 L 191.0 31 L 6 31 Z" fill="#FFFFFF" stroke="#808080" stroke-width="1.2"/><text x="14" y="23" font-size="12" font-weight="bold" fill="#000000">sd GCS Thread Interaction</text><circle cx="70" cy="50" r="8" fill="none" stroke="#000000" stroke-width="1.3"/><line x1="70" y1="58" x2="70" y2="74" stroke="#000000" stroke-width="1.3"/><line x1="60" y1="64" x2="80" y2="64" stroke="#000000" stroke-width="1.3"/><line x1="70" y1="74" x2="62" y2="86" stroke="#000000" stroke-width="1.3"/><line x1="70" y1="74" x2="78" y2="86" stroke="#000000" stroke-width="1.3"/><text x="70" y="100" font-size="10" fill="#000000" text-anchor="middle">User</text><rect x="149.0" y="46" width="122" height="30" fill="#FFFFCC" stroke="#808080" stroke-width="1"/><text x="210" y="65" font-size="10.5" fill="#000000" text-anchor="middle">MainThread</text><rect x="289.0" y="46" width="122" height="30" fill="#FFFFCC" stroke="#808080" stroke-width="1"/><text x="350" y="65" font-size="10.5" fill="#000000" text-anchor="middle">DiscoveryThread</text><rect x="444.0" y="46" width="122" height="30" fill="#FFFFCC" stroke="#808080" stroke-width="1"/><text x="505" y="65" font-size="10.5" fill="#000000" text-anchor="middle">StreamWorker</text><rect x="584.0" y="46" width="122" height="30" fill="#FFFFCC" stroke="#808080" stroke-width="1"/><text x="645" y="65" font-size="10.5" fill="#000000" text-anchor="middle">HUDThread</text><rect x="724.0" y="46" width="122" height="30" fill="#FFFFCC" stroke="#808080" stroke-width="1"/><text x="785" y="65" font-size="10.5" fill="#000000" text-anchor="middle">PollWorker</text><rect x="864.0" y="46" width="122" height="30" fill="#FFFFCC" stroke="#808080" stroke-width="1"/><text x="925" y="65" font-size="10.5" fill="#000000" text-anchor="middle">ESP32</text><line x1="70" y1="104" x2="70" y2="1010" stroke="#808080" stroke-width="1" stroke-dasharray="5 3"/><line x1="210" y1="76" x2="210" y2="1010" stroke="#808080" stroke-width="1" stroke-dasharray="5 3"/><line x1="350" y1="76" x2="350" y2="1010" stroke="#808080" stroke-width="1" stroke-dasharray="5 3"/><line x1="505" y1="76" x2="505" y2="1010" stroke="#808080" stroke-width="1" stroke-dasharray="5 3"/><line x1="645" y1="76" x2="645" y2="1010" stroke="#808080" stroke-width="1" stroke-dasharray="5 3"/><line x1="785" y1="76" x2="785" y2="1010" stroke="#808080" stroke-width="1" stroke-dasharray="5 3"/><line x1="925" y1="76" x2="925" y2="1010" stroke="#808080" stroke-width="1" stroke-dasharray="5 3"/><line x1="73" y1="130" x2="205" y2="130" stroke="#4B4B4B" stroke-width="1" marker-end="url(#arr)"/><text x="139.0" y="125" font-size="9.5" fill="#000000" text-anchor="middle">1: click Auto Connect</text><rect x="205" y="130" width="10" height="200" fill="#FDFDF2" stroke="#808080" stroke-width="0.9"/><line x1="215" y1="162" x2="345" y2="162" stroke="#4B4B4B" stroke-width="1" marker-end="url(#arr)"/><text x="280.0" y="157" font-size="9.5" fill="#000000" text-anchor="middle">2: start()</text><rect x="345" y="162" width="10" height="100" fill="#FDFDF2" stroke="#808080" stroke-width="0.9"/><line x1="355" y1="194" x2="920" y2="194" stroke="#4B4B4B" stroke-width="1" marker-end="url(#arr)"/><text x="637.5" y="189" font-size="9.5" fill="#000000" text-anchor="middle">3: mDNS + subnet scan</text><line x1="920" y1="224" x2="355" y2="224" stroke="#4B4B4B" stroke-width="1" stroke-dasharray="5 3" marker-end="url(#open)"/><text x="637.5" y="219" font-size="9.5" fill="#000000" text-anchor="middle">4: IP found</text><line x1="345" y1="254" x2="215" y2="254" stroke="#4B4B4B" stroke-width="1" stroke-dasharray="5 3" marker-end="url(#open)"/><text x="280.0" y="249" font-size="9.5" fill="#000000" text-anchor="middle">5: after(0, connect)</text><line x1="215" y1="288" x2="920" y2="288" stroke="#4B4B4B" stroke-width="1" marker-end="url(#arr)"/><text x="567.5" y="283" font-size="9.5" fill="#000000" text-anchor="middle">6: connect(ip : 12345)</text><rect x="920" y="288" width="10" height="34" fill="#FDFDF2" stroke="#808080" stroke-width="0.9"/><line x1="920" y1="318" x2="215" y2="318" stroke="#4B4B4B" stroke-width="1" stroke-dasharray="5 3" marker-end="url(#open)"/><text x="567.5" y="313" font-size="9.5" fill="#000000" text-anchor="middle">connected</text><rect x="150" y="352" width="810" height="108" fill="none" stroke="#808080" stroke-width="1.1"/><path d="M 150 352 L 184.5 352 L 184.5 367 L 176.5 375 L 150 375 Z" fill="#EFEFEF" stroke="#808080" stroke-width="1"/><text x="157" y="368" font-size="10" font-weight="bold" fill="#000000">opt</text><text x="192.5" y="368" font-size="9.5" fill="#000000">[Read / Apply / Save clicked]</text><rect x="205" y="380" width="10" height="66" fill="#FDFDF2" stroke="#808080" stroke-width="0.9"/><line x1="215" y1="392" x2="920" y2="392" stroke="#4B4B4B" stroke-width="1" marker-end="url(#arr)"/><text x="567.5" y="387" font-size="9.5" fill="#000000" text-anchor="middle">7: send_command(cmd)  {socket lock}</text><rect x="920" y="392" width="10" height="38" fill="#FDFDF2" stroke="#808080" stroke-width="0.9"/><line x1="920" y1="424" x2="215" y2="424" stroke="#4B4B4B" stroke-width="1" stroke-dasharray="5 3" marker-end="url(#open)"/><text x="567.5" y="419" font-size="9.5" fill="#000000" text-anchor="middle">reply / OK</text><line x1="510" y1="496" x2="920" y2="496" stroke="#4B4B4B" stroke-width="1" marker-end="url(#arr)"/><text x="715.0" y="491" font-size="9.5" fill="#000000" text-anchor="middle">8: startPWMStream</text><rect x="500" y="496" width="10" height="164" fill="#FDFDF2" stroke="#808080" stroke-width="0.9"/><line x1="920" y1="524" x2="510" y2="524" stroke="#4B4B4B" stroke-width="1" stroke-dasharray="5 3" marker-end="url(#open)"/><text x="715.0" y="519" font-size="9.5" fill="#000000" text-anchor="middle">PWM_STREAM_START</text><rect x="160" y="546" width="800" height="112" fill="none" stroke="#808080" stroke-width="1.1"/><path d="M 160 546 L 202.0 546 L 202.0 561 L 194.0 569 L 160 569 Z" fill="#EFEFEF" stroke="#808080" stroke-width="1"/><text x="167" y="562" font-size="10" font-weight="bold" fill="#000000">loop</text><text x="210.0" y="562" font-size="9.5" fill="#000000">[stream active — every 200 ms]</text><line x1="920" y1="584" x2="510" y2="584" stroke="#4B4B4B" stroke-width="1" marker-end="url(#open)"/><text x="715.0" y="579" font-size="9.5" fill="#000000" text-anchor="middle">9: push “55,48,72,50”</text><line x1="500" y1="628" x2="215" y2="628" stroke="#4B4B4B" stroke-width="1" marker-end="url(#open)"/><text x="357.5" y="623" font-size="9.5" fill="#000000" text-anchor="middle">10: after(0, update_bars)</text><line x1="215" y1="706" x2="920" y2="706" stroke="#4B4B4B" stroke-width="1" marker-end="url(#arr)"/><text x="567.5" y="701" font-size="9.5" fill="#000000" text-anchor="middle">11: startCubeStream</text><line x1="920" y1="734" x2="215" y2="734" stroke="#4B4B4B" stroke-width="1" stroke-dasharray="5 3" marker-end="url(#open)"/><text x="567.5" y="729" font-size="9.5" fill="#000000" text-anchor="middle">CUBE_STREAM_START</text><rect x="160" y="756" width="800" height="116" fill="none" stroke="#808080" stroke-width="1.1"/><path d="M 160 756 L 202.0 756 L 202.0 771 L 194.0 779 L 160 779 Z" fill="#EFEFEF" stroke="#808080" stroke-width="1"/><text x="167" y="772" font-size="10" font-weight="bold" fill="#000000">loop</text><text x="210.0" y="772" font-size="9.5" fill="#000000">[HUD open — 50 Hz]</text><rect x="500" y="786" width="10" height="70" fill="#FDFDF2" stroke="#808080" stroke-width="0.9"/><line x1="920" y1="798" x2="510" y2="798" stroke="#4B4B4B" stroke-width="1" marker-end="url(#open)"/><text x="715.0" y="793" font-size="9.5" fill="#000000" text-anchor="middle">12: push “r,p,y”</text><line x1="510" y1="840" x2="640" y2="840" stroke="#4B4B4B" stroke-width="1" marker-end="url(#arr)"/><text x="575.0" y="835" font-size="9.5" fill="#000000" text-anchor="middle">13: queue.put(frame)</text><text x="657" y="858" font-size="9.5" fill="#000000" text-anchor="start">renders horizon</text><rect x="160" y="894" width="800" height="104" fill="none" stroke="#808080" stroke-width="1.1"/><path d="M 160 894 L 202.0 894 L 202.0 909 L 194.0 917 L 160 917 Z" fill="#EFEFEF" stroke="#808080" stroke-width="1"/><text x="167" y="910" font-size="10" font-weight="bold" fill="#000000">loop</text><text x="210.0" y="910" font-size="9.5" fill="#000000">[Diagnostics tab visible — every 200 ms]</text><rect x="780" y="918" width="10" height="66" fill="#FDFDF2" stroke="#808080" stroke-width="0.9"/><line x1="790" y1="930" x2="920" y2="930" stroke="#4B4B4B" stroke-width="1" marker-end="url(#arr)"/><text x="855.0" y="925" font-size="9.5" fill="#000000" text-anchor="middle">14: getStatus</text><line x1="920" y1="956" x2="790" y2="956" stroke="#4B4B4B" stroke-width="1" stroke-dasharray="5 3" marker-end="url(#open)"/><text x="855.0" y="951" font-size="9.5" fill="#000000" text-anchor="middle">9 status fields</text><line x1="780" y1="982" x2="215" y2="982" stroke="#4B4B4B" stroke-width="1" marker-end="url(#open)"/><text x="497.5" y="977" font-size="9.5" fill="#000000" text-anchor="middle">15: after(0, update UI)</text><text x="170" y="1032" font-size="9.5" fill="#000000" text-anchor="start">All UI updates from workers are marshalled to the tkinter main thread with after(0, …).</text></svg>