<?xml version="1.0" encoding="UTF-8"?>
<svg xmlns="http://www.w3.org/2000/svg" width="700" height="810" viewBox="0 0 700 810" style="font-family: Arial, Helvetica, sans-serif;"><rect width="700" height="810" fill="#FFFFFF"/><defs><marker id="arr" viewBox="0 0 10 10" refX="9" refY="5" markerWidth="7" markerHeight="7" orient="auto-start-reverse"><path d="M0 1 L9 5 L0 9 Z" fill="#4B4B4B"/></marker><marker id="open" viewBox="0 0 10 10" refX="9" refY="5" markerWidth="8" markerHeight="8" orient="auto-start-reverse"><path d="M1 1 L9 5 L1 9" fill="none" stroke="#4B4B4B" stroke-width="1.2"/></marker></defs><rect x="6" y="6" width="688" height="798" fill="#FFFFFF" stroke="#808080" stroke-width="1.2"/><path d="M 6 6 L 300.8 6 L 300.8 22 L 291.8 31 L 6 31 Z" fill="#FFFFFF" stroke="#808080" stroke-width="1.2"/><text x="14" y="23" font-size="12" font-weight="bold" fill="#000000">act Autopilot Mode and Control Decision</text><circle cx="330" cy="58" r="8" fill="#000000"/><polyline points="330,66 330,102" fill="none" stroke="#4B4B4B" stroke-width="1" marker-end="url(#arr)"/><text x="344" y="84" font-size="9.5" fill="#000000" text-anchor="start">from step 2 — RC read</text><polygon points="330,113.0 410.0,152 330,191.0 250.0,152" fill="#FFFFCC" stroke="#808080" stroke-width="1"/><text x="330" y="149" font-size="10" fill="#000000" text-anchor="middle">CH4 &gt; 90%?</text><text x="330" y="163" font-size="10" fill="#000000" text-anchor="middle">autopilot switch</text><polyline points="250,152 216,152" fill="none" stroke="#4B4B4B" stroke-width="1" marker-end="url(#arr)"/><text x="242" y="146" font-size="9.5" fill="#000000" text-anchor="end">[no]</text><rect x="38.0" y="126" width="176" height="52" rx="12" fill="#FFFFCC" stroke="#808080" stroke-width="1"/><text x="126" y="146.0" font-size="11" fill="#000000" text-anchor="middle">Manual flight mode</text><text x="126" y="163.0" font-size="9" fill="#3A3A3A" text-anchor="middle">RC sticks → servos</text><polyline points="126,178 126,652 216,652" fill="none" stroke="#4B4B4B" stroke-width="1" stroke-dasharray="5 3" marker-end="url(#arr)"/><polyline points="330,191 330,222" fill="none" stroke="#4B4B4B" stroke-width="1" marker-end="url(#arr)"/><text x="338" y="216" font-size="9.5" fill="#000000" text-anchor="start">[yes]</text><rect x="210.0" y="222" width="240" height="48" rx="12" fill="#FFFFCC" stroke="#808080" stroke-width="1"/><text x="330" y="250.0" font-size="11" fill="#000000" text-anchor="middle">Compare with lastAutoState</text><polyline points="330,270 330,300" fill="none" stroke="#4B4B4B" stroke-width="1" marker-end="url(#arr)"/><polygon points="330,311.0 405.0,348 330,385.0 255.0,348" fill="#FFFFCC" stroke="#808080" stroke-width="1"/><text x="330" y="345" font-size="10" fill="#000000" text-anchor="middle">first tick of</text><text x="330" y="359" font-size="10" fill="#000000" text-anchor="middle">autopilot?</text><polyline points="405,348 510,348" fill="none" stroke="#4B4B4B" stroke-width="1" marker-end="url(#arr)"/><text x="412" y="342" font-size="9.5" fill="#000000" text-anchor="start">[yes]</text><rect x="510.0" y="322" width="150" height="52" rx="12" fill="#FFFFCC" stroke="#808080" stroke-width="1"/><text x="585" y="342.0" font-size="11" fill="#000000" text-anchor="middle">Reset PIDs</text><text x="585" y="359.0" font-size="9" fill="#3A3A3A" text-anchor="middle">bumpless transfer</text><polyline points="585,374 585,416 332,416" fill="none" stroke="#4B4B4B" stroke-width="1" stroke-dasharray="5 3" marker-end="url(#arr)"/><polyline points="330,385 330,432" fill="none" stroke="#4B4B4B" stroke-width="1" marker-end="url(#arr)"/><text x="338" y="428" font-size="9.5" fill="#000000" text-anchor="start">[no]</text><polygon points="330,443.0 410.0,482 330,521.0 250.0,482" fill="#FFFFCC" stroke="#808080" stroke-width="1"/><text x="330" y="479" font-size="10" fill="#000000" text-anchor="middle">both sticks</text><text x="330" y="493" font-size="10" fill="#000000" text-anchor="middle">centred ±5%?</text><polyline points="410,482 510,482" fill="none" stroke="#4B4B4B" stroke-width="1" marker-end="url(#arr)"/><text x="418" y="476" font-size="9.5" fill="#000000" text-anchor="start">[no]</text><rect x="510.0" y="448" width="150" height="68" rx="12" fill="#FFFFCC" stroke="#808080" stroke-width="1"/><text x="585" y="476.0" font-size="11" fill="#000000" text-anchor="middle">Moved axis → manual</text><text x="585" y="493.0" font-size="9" fill="#3A3A3A" text-anchor="middle">other axis → PID holds</text><polyline points="585,516 585,652 332,652" fill="none" stroke="#4B4B4B" stroke-width="1" stroke-dasharray="5 3" marker-end="url(#arr)"/><polyline points="330,521 330,552" fill="none" stroke="#4B4B4B" stroke-width="1" marker-end="url(#arr)"/><text x="338" y="546" font-size="9.5" fill="#000000" text-anchor="start">[yes]</text><rect x="210.0" y="552" width="240" height="50" rx="12" fill="#FFFFCC" stroke="#808080" stroke-width="1"/><text x="330" y="571.0" font-size="11" fill="#000000" text-anchor="middle">Full PID — both axes</text><text x="330" y="588.0" font-size="9" fill="#3A3A3A" text-anchor="middle">pitch PID + roll PID</text><polyline points="330,602 330,630" fill="none" stroke="#4B4B4B" stroke-width="1" marker-end="url(#arr)"/><rect x="210.0" y="630" width="240" height="48" rx="12" fill="#FFFFCC" stroke="#808080" stroke-width="1"/><text x="330" y="648.0" font-size="11" fill="#000000" text-anchor="middle">writeServo()</text><text x="330" y="665.0" font-size="9" fill="#3A3A3A" text-anchor="middle">clamp 45°–135° · 1° deadband</text><polyline points="330,678 330,708" fill="none" stroke="#4B4B4B" stroke-width="1" marker-end="url(#arr)"/><circle cx="330" cy="720" r="10" fill="#FFFFFF" stroke="#000" stroke-width="1.4"/><circle cx="330" cy="720" r="5.5" fill="#000"/><text x="348" y="724" font-size="9.5" fill="#000000" text-anchor="start">to step 5 — servo write / next tick</text></svg>